<svg width="1000" height="600" viewBox="0 0 1000 600" fill="none" xmlns="http://www.w3.org/2000/svg">
<path d="M62.0364 87.7552V503.068" stroke="white" stroke-width="4" stroke-linecap="round"/>
<path d="M117.727 418.877C117.727 412.075 119.196 406.012 122.143 400.689C125.086 395.356 129.19 391.205 134.456 388.231C139.716 385.247 145.685 383.752 152.352 383.752C160.529 383.752 167.529 385.913 173.352 390.231C179.17 394.554 183.06 400.434 185.018 407.877H166.581C165.206 405.002 163.258 402.814 160.748 401.314C158.232 399.814 155.373 399.064 152.164 399.064C146.998 399.064 142.81 400.867 139.602 404.46C136.404 408.059 134.81 412.867 134.81 418.877C134.81 424.893 136.404 429.7 139.602 433.294C142.81 436.893 146.998 438.689 152.164 438.689C155.373 438.689 158.232 437.939 160.748 436.439C163.258 434.929 165.206 432.731 166.581 429.856H185.018C183.06 437.314 179.17 443.189 173.352 447.481C167.529 451.762 160.529 453.898 152.352 453.898C145.685 453.898 139.716 452.413 134.456 449.439C129.19 446.455 125.086 442.314 122.143 437.023C119.196 431.721 117.727 425.669 117.727 418.877Z" fill="white"/>
<path d="M254.941 384.544V453.398H238.171V425.044H212.087V453.398H195.316V384.544H212.087V411.523H238.171V384.544H254.941Z" fill="white"/>
<path d="M309.866 441.231H284.178L280.053 453.398H262.491L287.407 384.544H306.824L331.741 453.398H313.991L309.866 441.231ZM305.553 428.294L297.032 403.085L288.595 428.294H305.553Z" fill="white"/>
<path d="M388.816 384.544V397.981H370.587V453.398H353.816V397.981H335.566V384.544H388.816Z" fill="white"/>
<path d="M414.03 397.981V411.919H436.488V424.856H414.03V439.96H439.426V453.398H397.259V384.544H439.426V397.981H414.03Z" fill="white"/>
<path d="M493.173 441.231H467.486L463.361 453.398H445.798L470.715 384.544H490.132L515.048 453.398H497.298L493.173 441.231ZM488.861 428.294L480.34 403.085L471.903 428.294H488.861Z" fill="white"/>
<path d="M539.082 384.544V425.731C539.082 429.856 540.092 433.033 542.124 435.252C544.15 437.476 547.124 438.585 551.04 438.585C554.967 438.585 557.978 437.476 560.061 435.252C562.155 433.033 563.207 429.856 563.207 425.731V384.544H579.978V425.648C579.978 431.788 578.665 436.981 576.04 441.231C573.426 445.481 569.915 448.69 565.499 450.856C561.092 453.012 556.176 454.085 550.749 454.085C545.316 454.085 540.462 453.023 536.186 450.898C531.905 448.773 528.525 445.575 526.04 441.294C523.551 437.002 522.311 431.788 522.311 425.648V384.544H539.082Z" fill="white"/>
<path d="M653.352 453.398H636.56L608.519 410.919V453.398H591.748V384.544H608.519L636.56 427.21V384.544H653.352V453.398Z" fill="white"/>
<path d="M682.273 397.981V411.919H704.732V424.856H682.273V439.96H707.669V453.398H665.502V384.544H707.669V397.981H682.273Z" fill="white"/>
<path d="M735.042 384.544V425.731C735.042 429.856 736.052 433.033 738.083 435.252C740.11 437.476 743.083 438.585 747 438.585C750.927 438.585 753.938 437.476 756.021 435.252C758.115 433.033 759.167 429.856 759.167 425.731V384.544H775.938V425.648C775.938 431.788 774.625 436.981 772 441.231C769.386 445.481 765.875 448.69 761.458 450.856C757.052 453.012 752.136 454.085 746.708 454.085C741.276 454.085 736.422 453.023 732.146 450.898C727.865 448.773 724.485 445.575 722 441.294C719.511 437.002 718.271 431.788 718.271 425.648V384.544H735.042Z" fill="white"/>
<path d="M832.52 384.544V397.981H804.479V412.502H825.458V425.544H804.479V453.398H787.708V384.544H832.52Z" fill="white"/>
<mask id="mask0_33_206" style="mask-type:luminance" maskUnits="userSpaceOnUse" x="113" y="217" width="557" height="157">
<path d="M669.333 217.333H113.333V373.333H669.333V217.333Z" fill="white"/>
</mask>
<g mask="url(#mask0_33_206)">
<path d="M140.123 271.053V286.678H165.331V301.199H140.123V318.157H168.623V333.22H121.31V255.99H168.623V271.053H140.123Z" fill="white"/>
<path d="M218.241 271.178C225.434 271.178 231.168 273.506 235.45 278.157C239.741 282.813 241.887 289.209 241.887 297.345V333.22H223.2V299.886C223.2 295.777 222.127 292.589 219.991 290.324C217.866 288.048 215.012 286.907 211.429 286.907C207.83 286.907 204.96 288.048 202.825 290.324C200.7 292.589 199.637 295.777 199.637 299.886V333.22H180.825V271.824H199.637V279.97C201.554 277.261 204.122 275.126 207.346 273.553C210.58 271.97 214.21 271.178 218.241 271.178Z" fill="white"/>
<path d="M279.95 334.095C274.601 334.095 269.835 333.178 265.658 331.345C261.476 329.511 258.168 327.006 255.741 323.824C253.325 320.631 251.97 317.053 251.679 313.095H270.262C270.481 315.22 271.476 316.944 273.241 318.261C275.002 319.584 277.168 320.24 279.741 320.24C282.085 320.24 283.897 319.782 285.179 318.865C286.455 317.949 287.095 316.756 287.095 315.282C287.095 313.522 286.179 312.22 284.345 311.386C282.512 310.542 279.543 309.605 275.45 308.574C271.043 307.548 267.371 306.464 264.429 305.324C261.496 304.188 258.97 302.397 256.845 299.949C254.72 297.49 253.658 294.173 253.658 289.99C253.658 286.464 254.627 283.256 256.575 280.365C258.517 277.464 261.377 275.173 265.158 273.49C268.934 271.798 273.429 270.949 278.637 270.949C286.33 270.949 292.392 272.86 296.825 276.678C301.267 280.485 303.825 285.542 304.491 291.845H287.095C286.804 289.72 285.866 288.042 284.283 286.803C282.71 285.553 280.642 284.928 278.075 284.928C275.877 284.928 274.189 285.355 273.012 286.199C271.845 287.032 271.262 288.188 271.262 289.657C271.262 291.407 272.189 292.73 274.054 293.615C275.929 294.49 278.851 295.376 282.825 296.261C287.366 297.428 291.064 298.584 293.929 299.72C296.788 300.86 299.293 302.694 301.45 305.22C303.616 307.751 304.741 311.136 304.825 315.386C304.825 318.985 303.809 322.199 301.783 325.032C299.767 327.855 296.871 330.069 293.095 331.678C289.314 333.287 284.934 334.095 279.95 334.095Z" fill="white"/>
<path d="M374.23 301.532C374.23 303.298 374.116 305.131 373.897 307.032H331.334C331.626 310.855 332.845 313.772 335.001 315.782C337.168 317.798 339.824 318.803 342.98 318.803C347.673 318.803 350.938 316.824 352.772 312.865H372.813C371.782 316.897 369.928 320.527 367.251 323.761C364.569 326.985 361.209 329.511 357.168 331.345C353.136 333.178 348.631 334.095 343.647 334.095C337.631 334.095 332.277 332.819 327.584 330.261C322.886 327.694 319.22 324.027 316.584 319.261C313.944 314.485 312.626 308.907 312.626 302.532C312.626 296.147 313.923 290.569 316.522 285.803C319.131 281.042 322.782 277.376 327.48 274.803C332.173 272.235 337.563 270.949 343.647 270.949C349.59 270.949 354.866 272.199 359.48 274.699C364.105 277.188 367.715 280.74 370.313 285.365C372.923 289.98 374.23 295.365 374.23 301.532ZM354.98 296.574C354.98 293.355 353.876 290.792 351.668 288.886C349.47 286.97 346.73 286.011 343.438 286.011C340.272 286.011 337.605 286.928 335.438 288.761C333.282 290.595 331.949 293.199 331.438 296.574H354.98Z" fill="white"/>
<path d="M462.454 271.178C470.089 271.178 476.162 273.49 480.662 278.115C485.172 282.73 487.433 289.136 487.433 297.345V333.22H468.745V299.886C468.745 295.928 467.693 292.865 465.6 290.699C463.501 288.532 460.62 287.449 456.954 287.449C453.287 287.449 450.402 288.532 448.308 290.699C446.225 292.865 445.183 295.928 445.183 299.886V333.22H426.495V299.886C426.495 295.928 425.443 292.865 423.35 290.699C421.266 288.532 418.391 287.449 414.725 287.449C411.042 287.449 408.152 288.532 406.058 290.699C403.975 292.865 402.933 295.928 402.933 299.886V333.22H384.12V271.824H402.933V279.532C404.85 276.964 407.339 274.928 410.412 273.428C413.495 271.928 416.98 271.178 420.87 271.178C425.495 271.178 429.62 272.173 433.245 274.157C436.881 276.131 439.73 278.949 441.787 282.615C443.912 279.24 446.808 276.49 450.475 274.365C454.141 272.24 458.131 271.178 462.454 271.178Z" fill="white"/>
<path d="M519.432 280.511C521.192 277.652 523.729 275.345 527.036 273.595C530.338 271.834 534.119 270.949 538.369 270.949C543.421 270.949 548.005 272.235 552.119 274.803C556.229 277.376 559.473 281.042 561.848 285.803C564.234 290.568 565.432 296.105 565.432 302.407C565.432 308.714 564.234 314.272 561.848 319.074C559.473 323.881 556.229 327.589 552.119 330.199C548.005 332.798 543.421 334.095 538.369 334.095C534.036 334.095 530.249 333.23 527.015 331.511C523.791 329.792 521.265 327.501 519.432 324.636V333.22H500.619V251.803H519.432V280.511ZM546.286 302.407C546.286 297.714 544.979 294.032 542.369 291.365C539.77 288.688 536.562 287.345 532.744 287.345C529.005 287.345 525.833 288.709 523.223 291.428C520.624 294.136 519.327 297.839 519.327 302.532C519.327 307.23 520.624 310.928 523.223 313.636C525.833 316.345 529.005 317.699 532.744 317.699C536.494 317.699 539.687 316.324 542.327 313.574C544.963 310.824 546.286 307.105 546.286 302.407Z" fill="white"/>
<path d="M594.127 251.803V333.22H575.315V251.803H594.127Z" fill="white"/>
<path d="M665.642 301.532C665.642 303.298 665.528 305.131 665.309 307.032H622.747C623.038 310.855 624.257 313.772 626.413 315.782C628.58 317.798 631.236 318.803 634.392 318.803C639.085 318.803 642.351 316.824 644.184 312.865H664.226C663.195 316.897 661.34 320.527 658.663 323.761C655.981 326.985 652.622 329.511 648.58 331.345C644.549 333.178 640.044 334.095 635.059 334.095C629.044 334.095 623.689 332.819 618.997 330.261C614.299 327.694 610.632 324.027 607.997 319.261C605.356 314.485 604.038 308.907 604.038 302.532C604.038 296.147 605.335 290.569 607.934 285.803C610.544 281.042 614.195 277.376 618.892 274.803C623.585 272.235 628.976 270.949 635.059 270.949C641.002 270.949 646.278 272.199 650.892 274.699C655.517 277.188 659.127 280.74 661.726 285.365C664.335 289.98 665.642 295.365 665.642 301.532ZM646.392 296.574C646.392 293.355 645.288 290.792 643.08 288.886C640.882 286.97 638.142 286.011 634.851 286.011C631.684 286.011 629.017 286.928 626.851 288.761C624.695 290.595 623.361 293.199 622.851 296.574H646.392Z" fill="white"/>
</g>
<path d="M130.977 143.726V166.58H155.894V173.934H130.977V197.476H158.831V204.83H122.06V136.371H158.831V143.726H130.977Z" fill="white"/>
<path d="M226.103 204.83H217.187L181.291 150.392V204.83H172.374V136.371H181.291L217.187 190.705V136.371H226.103V204.83Z" fill="white"/>
<path d="M283.386 136.476V143.726H264.761V204.83H255.823V143.726H237.094V136.476H283.386Z" fill="white"/>
<path d="M330.362 204.83L314.092 176.871H303.3V204.83H294.383V136.476H316.446C321.612 136.476 325.972 137.361 329.529 139.121C333.097 140.887 335.764 143.278 337.529 146.288C339.29 149.288 340.175 152.72 340.175 156.58C340.175 161.288 338.81 165.444 336.092 169.038C333.383 172.637 329.321 175.017 323.904 176.184L341.071 204.83H330.362ZM303.3 169.726H316.446C321.279 169.726 324.904 168.533 327.321 166.142C329.748 163.757 330.967 160.569 330.967 156.58C330.967 152.528 329.769 149.387 327.383 147.163C324.993 144.944 321.347 143.83 316.446 143.83H303.3V169.726Z" fill="white"/>
<path d="M362.931 143.726V166.58H387.848V173.934H362.931V197.476H390.785V204.83H354.015V136.371H390.785V143.726H362.931Z" fill="white"/>
<path d="M450.016 156.476C450.016 162.174 448.068 166.903 444.183 170.663C440.292 174.413 434.36 176.288 426.391 176.288H413.246V204.83H404.329V136.476H426.391C434.1 136.476 439.959 138.34 443.975 142.059C448.001 145.783 450.016 150.59 450.016 156.476ZM426.391 168.934C431.36 168.934 435.022 167.861 437.371 165.705C439.73 163.538 440.912 160.465 440.912 156.476C440.912 148.049 436.068 143.83 426.391 143.83H413.246V168.934H426.391Z" fill="white"/>
<path d="M497.095 204.83L480.824 176.871H470.033V204.83H461.116V136.476H483.178C488.345 136.476 492.705 137.361 496.262 139.121C499.83 140.887 502.496 143.278 504.262 146.288C506.022 149.288 506.908 152.72 506.908 156.58C506.908 161.288 505.543 165.444 502.824 169.038C500.116 172.637 496.053 175.017 490.637 176.184L507.803 204.83H497.095ZM470.033 169.726H483.178C488.012 169.726 491.637 168.533 494.053 166.142C496.481 163.757 497.699 160.569 497.699 156.58C497.699 152.528 496.501 149.387 494.116 147.163C491.725 144.944 488.08 143.83 483.178 143.83H470.033V169.726Z" fill="white"/>
<path d="M529.664 143.726V166.58H554.581V173.934H529.664V197.476H557.518V204.83H520.747V136.371H557.518V143.726H529.664Z" fill="white"/>
<path d="M624.79 204.83H615.874L579.978 150.392V204.83H571.061V136.371H579.978L615.874 190.705V136.371H624.79V204.83Z" fill="white"/>
<path d="M661.281 136.476C668.739 136.476 675.198 137.866 680.656 140.642C686.114 143.424 690.292 147.392 693.198 152.559C696.114 157.726 697.573 163.804 697.573 170.788C697.573 177.788 696.114 183.861 693.198 188.996C690.292 194.121 686.114 198.049 680.656 200.767C675.198 203.476 668.739 204.83 661.281 204.83H640.01V136.476H661.281ZM661.281 197.476C670.114 197.476 676.849 195.142 681.489 190.476C686.125 185.799 688.448 179.236 688.448 170.788C688.448 162.288 686.104 155.658 681.427 150.892C676.76 146.116 670.042 143.726 661.281 143.726H648.927V197.476H661.281Z" fill="white"/>
<path d="M745.33 204.83L729.06 176.871H718.268V204.83H709.351V136.476H731.414C736.58 136.476 740.94 137.361 744.497 139.121C748.065 140.887 750.732 143.278 752.497 146.288C754.258 149.288 755.143 152.72 755.143 156.58C755.143 161.288 753.778 165.444 751.06 169.038C748.351 172.637 744.289 175.017 738.872 176.184L756.039 204.83H745.33ZM718.268 169.726H731.414C736.247 169.726 739.872 168.533 742.289 166.142C744.716 163.757 745.935 160.569 745.935 156.58C745.935 152.528 744.737 149.387 742.351 147.163C739.961 144.944 736.315 143.83 731.414 143.83H718.268V169.726Z" fill="white"/>
<path d="M777.899 143.726V166.58H802.816V173.934H777.899V197.476H805.754V204.83H768.983V136.371H805.754V143.726H777.899Z" fill="white"/>
<path d="M644.126 483.9L628.46 525.379H622.21L606.564 483.9H612.335L625.376 519.67L638.397 483.9H644.126Z" fill="white"/>
<path d="M679.817 507.816C679.817 508.847 679.76 509.936 679.651 511.087H653.588C653.781 514.311 654.88 516.827 656.88 518.629C658.88 520.436 661.307 521.337 664.171 521.337C666.515 521.337 668.468 520.795 670.026 519.712C671.593 518.618 672.697 517.15 673.338 515.316H679.171C678.296 518.457 676.546 521.014 673.921 522.983C671.307 524.941 668.057 525.92 664.171 525.92C661.072 525.92 658.302 525.228 655.859 523.837C653.427 522.452 651.515 520.478 650.13 517.92C648.739 515.353 648.046 512.379 648.046 509.004C648.046 505.629 648.718 502.681 650.067 500.15C651.411 497.608 653.307 495.66 655.755 494.295C658.197 492.92 661.005 492.233 664.171 492.233C667.265 492.233 670.005 492.91 672.38 494.254C674.765 495.603 676.598 497.457 677.88 499.816C679.171 502.181 679.817 504.847 679.817 507.816ZM674.234 506.691C674.234 504.624 673.776 502.847 672.859 501.358C671.953 499.874 670.718 498.749 669.151 497.983C667.578 497.207 665.843 496.816 663.942 496.816C661.203 496.816 658.869 497.691 656.942 499.441C655.01 501.181 653.906 503.597 653.63 506.691H674.234Z" fill="white"/>
<path d="M702.863 492.17C706.832 492.17 710.05 493.374 712.509 495.775C714.967 498.165 716.196 501.624 716.196 506.15V525.379H710.842V506.92C710.842 503.67 710.019 501.186 708.384 499.462C706.759 497.728 704.54 496.858 701.738 496.858C698.873 496.858 696.597 497.754 694.905 499.545C693.222 501.337 692.384 503.936 692.384 507.337V525.379H686.967V492.754H692.384V497.4C693.451 495.733 694.91 494.452 696.759 493.545C698.602 492.629 700.639 492.17 702.863 492.17Z" fill="white"/>
<path d="M723.036 508.941C723.036 505.608 723.708 502.686 725.057 500.17C726.401 497.66 728.255 495.707 730.62 494.316C732.979 492.931 735.63 492.233 738.578 492.233C741.104 492.233 743.458 492.816 745.641 493.983C747.833 495.15 749.5 496.686 750.641 498.587V481.337H756.12V525.379H750.641V519.254C749.568 521.202 747.984 522.795 745.891 524.045C743.792 525.295 741.333 525.92 738.516 525.92C735.609 525.92 732.979 525.207 730.62 523.775C728.255 522.348 726.401 520.348 725.057 517.775C723.708 515.191 723.036 512.249 723.036 508.941ZM750.641 509.004C750.641 506.545 750.146 504.41 749.161 502.587C748.172 500.754 746.833 499.353 745.141 498.379C743.458 497.41 741.604 496.92 739.578 496.92C737.547 496.92 735.703 497.4 734.036 498.358C732.37 499.306 731.042 500.691 730.057 502.525C729.068 504.348 728.578 506.483 728.578 508.941C728.578 511.441 729.068 513.618 730.057 515.462C731.042 517.311 732.37 518.723 734.036 519.691C735.703 520.665 737.547 521.15 739.578 521.15C741.604 521.15 743.458 520.665 745.141 519.691C746.833 518.723 748.172 517.311 749.161 515.462C750.146 513.618 750.641 511.462 750.641 509.004Z" fill="white"/>
<path d="M795.04 507.816C795.04 508.848 794.982 509.936 794.873 511.087H768.81C769.003 514.311 770.102 516.827 772.102 518.629C774.102 520.436 776.529 521.337 779.394 521.337C781.738 521.337 783.691 520.795 785.248 519.712C786.816 518.618 787.92 517.15 788.56 515.316H794.394C793.519 518.457 791.769 521.014 789.144 522.983C786.529 524.941 783.279 525.92 779.394 525.92C776.295 525.92 773.524 525.228 771.081 523.837C768.649 522.452 766.738 520.478 765.352 517.92C763.962 515.353 763.269 512.379 763.269 509.004C763.269 505.629 763.941 502.681 765.29 500.15C766.633 497.608 768.529 495.66 770.977 494.295C773.42 492.92 776.227 492.233 779.394 492.233C782.488 492.233 785.227 492.91 787.602 494.254C789.988 495.603 791.821 497.457 793.102 499.816C794.394 502.181 795.04 504.848 795.04 507.816ZM789.456 506.691C789.456 504.624 788.998 502.848 788.081 501.358C787.175 499.874 785.941 498.749 784.373 497.983C782.8 497.207 781.066 496.816 779.165 496.816C776.425 496.816 774.092 497.691 772.165 499.441C770.232 501.181 769.128 503.598 768.852 506.691H789.456ZM784.998 483.545L772.331 490.316V486.275L784.998 478.837V483.545Z" fill="white"/>
<path d="M831.94 507.816C831.94 508.847 831.882 509.936 831.773 511.087H805.71C805.903 514.311 807.002 516.827 809.002 518.629C811.002 520.436 813.429 521.337 816.294 521.337C818.637 521.337 820.591 520.795 822.148 519.712C823.716 518.618 824.82 517.15 825.46 515.316H831.294C830.419 518.457 828.669 521.014 826.044 522.983C823.429 524.941 820.179 525.92 816.294 525.92C813.195 525.92 810.424 525.228 807.981 523.837C805.549 522.452 803.637 520.478 802.252 517.92C800.861 515.353 800.169 512.379 800.169 509.004C800.169 505.629 800.841 502.681 802.19 500.15C803.533 497.608 805.429 495.66 807.877 494.295C810.32 492.92 813.127 492.233 816.294 492.233C819.387 492.233 822.127 492.91 824.502 494.254C826.887 495.603 828.721 497.457 830.002 499.816C831.294 502.181 831.94 504.847 831.94 507.816ZM826.356 506.691C826.356 504.624 825.898 502.847 824.981 501.358C824.075 499.874 822.841 498.749 821.273 497.983C819.7 497.207 817.966 496.816 816.065 496.816C813.325 496.816 810.992 497.691 809.065 499.441C807.132 501.181 806.028 503.597 805.752 506.691H826.356Z" fill="white"/>
</svg>
